{
  "accessors": [
    {
      "bufferView": 2,
      "componentType": 5126,
      "count": 9862,
      "max": [
        1.0925745964050293,
        2.242788791656494,
        1.6859139204025269
      ],
      "min": [
        -3.1290488243103027,
        -3.9901235103607178,
        -0.20276755094528198
      ],
      "type": "VEC3"
    },
    {
      "bufferView": 2,
      "byteOffset": 118344,
      "componentType": 5126,
      "count": 9862,
      "max": [
        1.0,
        1.0,
        1.0
      ],
      "min": [
        -1.0,
        -1.0,
        -1.0
      ],
      "type": "VEC3"
    },
    {
      "bufferView": 3,
      "componentType": 5126,
      "count": 9862,
      "max": [
        1.0,
        1.0,
        1.0,
        1.0
      ],
      "min": [
        -1.0,
        -1.0,
        -1.0,
        -1.0
      ],
      "type": "VEC4"
    },
    {
      "bufferView": 1,
      "componentType": 5126,
      "count": 9862,
      "max": [
        0.9963090419769287,
        0.997042715549469
      ],
      "min": [
        0.005065823905169964,
        0.004205525852739811
      ],
      "type": "VEC2"
    },
    {
      "bufferView": 0,
      "componentType": 5125,
      "count": 42882,
      "type": "SCALAR"
    },
    {
      "bufferView": 2,
      "byteOffset": 236688,
      "componentType": 5126,
      "count": 6030,
      "max": [
        0.7214057445526123,
        2.4774415493011475,
        5.166027069091797
      ],
      "min": [
        -2.728010892868042,
        -6.000793933868408,
        -1.0209507942199707
      ],
      "type": "VEC3"
    },
    {
      "bufferView": 2,
      "byteOffset": 309048,
      "componentType": 5126,
      "count": 6030,
      "max": [
        1.0,
        1.0,
        1.0
      ],
      "min": [
        -1.0,
        -1.0,
        -1.0
      ],
      "type": "VEC3"
    },
    {
      "bufferView": 3,
      "byteOffset": 157792,
      "componentType": 5126,
      "count": 6030,
      "max": [
        1.0,
        1.0,
        1.0,
        1.0
      ],
      "min": [
        -1.0,
        -1.0,
        -1.0,
        -1.0
      ],
      "type": "VEC4"
    },
    {
      "bufferView": 1,
      "byteOffset": 78896,
      "componentType": 5126,
      "count": 6030,
      "max": [
        0.9984244108200073,
        0.9915359616279602
      ],
      "min": [
        0.0003711320459842682,
        0.0019377742428332567
      ],
      "type": "VEC2"
    },
    {
      "bufferView": 0,
      "byteOffset": 171528,
      "componentType": 5125,
      "count": 24630,
      "type": "SCALAR"
    },
    {
      "bufferView": 2,
      "byteOffset": 381408,
      "componentType": 5126,
      "count": 4,
      "max": [
        -0.864626407623291,
        1.8623473644256592,
        2.939880609512329
      ],
      "min": [
        -1.1353754997253418,
        1.7566401958465576,
        2.8341734409332275
      ],
      "type": "VEC3"
    },
    {
      "bufferView": 2,
      "byteOffset": 381456,
      "componentType": 5126,
      "count": 4,
      "max": [
        0.1203402578830719,
        -0.6116976141929626,
        -0.6117029190063477
      ],
      "min": [
        -0.1203344464302063,
        -0.7835060358047485,
        -0.7835582494735718
      ],
      "type": "VEC3"
    },
    {
      "bufferView": 1,
      "byteOffset": 127136,
      "componentType": 5126,
      "count": 4,
      "max": [
        0.21634216606616974,
        0.23584437370300293
      ],
      "min": [
        0.198821559548378,
        0.20570024847984314
      ],
      "type": "VEC2"
    },
    {
      "bufferView": 0,
      "byteOffset": 270048,
      "componentType": 5125,
      "count": 6,
      "type": "SCALAR"
    }
  ],
  "asset": {
    "extras": {
      "author": "Dominik Biały (https://sketchfab.com/crazyyuan)",
      "license": "CC-BY-4.0 (http://creativecommons.org/licenses/by/4.0/)",
      "source": "https://sketchfab.com/3d-models/fishing-ship-game-ready-asset-f791868a8b5f4996a49a3c8cd99336f6",
      "title": "Fishing Ship game-ready asset"
    },
    "generator": "Sketchfab-15.18.0",
    "version": "2.0"
  },
  "bufferViews": [
    {
      "buffer": 0,
      "byteLength": 270072,
      "name": "floatBufferViews",
      "target": 34963
    },
    {
      "buffer": 0,
      "byteLength": 127168,
      "byteOffset": 270072,
      "byteStride": 8,
      "name": "floatBufferViews",
      "target": 34962
    },
    {
      "buffer": 0,
      "byteLength": 381504,
      "byteOffset": 397240,
      "byteStride": 12,
      "name": "floatBufferViews",
      "target": 34962
    },
    {
      "buffer": 0,
      "byteLength": 254272,
      "byteOffset": 778744,
      "byteStride": 16,
      "name": "floatBufferViews",
      "target": 34962
    }
  ],
  "buffers": [
    {
      "byteLength": 1033016,
      "uri": "ltf.bin"
    }
  ],
  "extensionsUsed": [
    "KHR_materials_specular"
  ],
  "images": [
    {
      "uri": "textures/Boat_Interior_baseColor.png"
    },
    {
      "uri": "textures/Boat_Interior_metallicRoughness.png"
    },
    {
      "uri": "textures/Boat_Interior_normal.png"
    },
    {
      "uri": "textures/Boat_Interior_specularf0.png"
    },
    {
      "uri": "textures/Fishing_Ship_baseColor.png"
    },
    {
      "uri": "textures/Fishing_Ship_metallicRoughness.png"
    },
    {
      "uri": "textures/Fishing_Ship_normal.png"
    },
    {
      "uri": "textures/Fishing_Ship_specularf0.png"
    }
  ],
  "materials": [
    {
      "doubleSided": true,
      "extensions": {
        "KHR_materials_specular": {
          "specularColorFactor": [
            1.0,
            1.0,
            1.0
          ],
          "specularFactor": 1.0,
          "specularTexture": {
            "index": 3
          }
        }
      },
      "name": "Boat_Interior",
      "normalTexture": {
        "index": 2
      },
      "occlusionTexture": {
        "index": 1
      },
      "pbrMetallicRoughness": {
        "baseColorTexture": {
          "index": 0
        },
        "metallicRoughnessTexture": {
          "index": 1
        }
      }
    },
    {
      "doubleSided": true,
      "extensions": {
        "KHR_materials_specular": {
          "specularColorFactor": [
            1.0,
            1.0,
            1.0
          ],
          "specularFactor": 1.0,
          "specularTexture": {
            "index": 7
          }
        }
      },
      "name": "Fishing_Ship",
      "normalTexture": {
        "index": 6
      },
      "occlusionTexture": {
        "index": 5
      },
      "pbrMetallicRoughness": {
        "baseColorTexture": {
          "index": 4
        },
        "metallicRoughnessTexture": {
          "index": 5
        }
      }
    },
    {
      "doubleSided": true,
      "name": "Light",
      "pbrMetallicRoughness": {
        "baseColorFactor": [
          0.8,
          0.8,
          0.8,
          1.0
        ],
        "metallicFactor": 0.0,
        "roughnessFactor": 0.9577051495
      }
    }
  ],
  "meshes": [
    {
      "name": "Sketchfab_Boat_Interior_0",
      "primitives": [
        {
          "attributes": {
            "NORMAL": 1,
            "POSITION": 0,
            "TANGENT": 2,
            "TEXCOORD_0": 3
          },
          "indices": 4,
          "material": 0,
          "mode": 4
        }
      ]
    },
    {
      "name": "Sketchfab_Fishing_Ship_0",
      "primitives": [
        {
          "attributes": {
            "NORMAL": 6,
            "POSITION": 5,
            "TANGENT": 7,
            "TEXCOORD_0": 8
          },
          "indices": 9,
          "material": 1,
          "mode": 4
        }
      ]
    },
    {
      "name": "Sketchfab_Light_0",
      "primitives": [
        {
          "attributes": {
            "NORMAL": 11,
            "POSITION": 10,
            "TEXCOORD_0": 12
          },
          "indices": 13,
          "material": 2,
          "mode": 4
        }
      ]
    }
  ],
  "nodes": [
    {
      "children": [
        1
      ],
      "matrix": [
        1.0,
        0.0,
        0.0,
        0.0,
        0.0,
        2.220446049250313e-16,
        -1.0,
        0.0,
        0.0,
        1.0,
        2.220446049250313e-16,
        0.0,
        0.0,
        0.0,
        0.0,
        1.0
      ],
      "name": "Sketchfab_model"
    },
    {
      "children": [
        2
      ],
      "matrix": [
        1.0,
        0.0,
        0.0,
        0.0,
        0.0,
        0.0,
        1.0,
        0.0,
        0.0,
        -1.0,
        0.0,
        0.0,
        0.0,
        0.0,
        0.0,
        1.0
      ],
      "name": "3ecb844a89fc48c0abe879e9ddb6ca0f.fbx"
    },
    {
      "children": [
        3
      ],
      "name": "RootNode"
    },
    {
      "children": [
        4,
        5,
        6
      ],
      "matrix": [
        100.0,
        0.0,
        0.0,
        0.0,
        0.0,
        -1.629206793918314e-05,
        -99.99999999999868,
        0.0,
        0.0,
        99.99999999999868,
        -1.629206793918314e-05,
        0.0,
        0.0,
        0.0,
        0.0,
        1.0
      ],
      "name": "Sketchfab"
    },
    {
      "mesh": 0,
      "name": "Sketchfab_Boat_Interior_0"
    },
    {
      "mesh": 1,
      "name": "Sketchfab_Fishing_Ship_0"
    },
    {
      "mesh": 2,
      "name": "Sketchfab_Light_0"
    }
  ],
  "samplers": [
    {
      "magFilter": 9729,
      "minFilter": 9987,
      "wrapS": 10497,
      "wrapT": 10497
    }
  ],
  "scene": 0,
  "scenes": [
    {
      "name": "Sketchfab_Scene",
      "nodes": [
        0
      ]
    }
  ],
  "textures": [
    {
      "sampler": 0,
      "source": 0
    },
    {
      "sampler": 0,
      "source": 1
    },
    {
      "sampler": 0,
      "source": 2
    },
    {
      "sampler": 0,
      "source": 3
    },
    {
      "sampler": 0,
      "source": 4
    },
    {
      "sampler": 0,
      "source": 5
    },
    {
      "sampler": 0,
      "source": 6
    },
    {
      "sampler": 0,
      "source": 7
    }
  ]
}
